# xmcd CD database file
#
# Track frame offsets:
#	150
#	19167
#	31505
#	47980
#	66897
#	85192
#	99400
#	114092
#	127612
#	145295
#	162082
#	178152
#
# Disc length: 2541 seconds
#
# Revision: 0
# Processed by: cddbd v1.5.1PL0 Copyright (c) Steve Scherf et al.
# Submitted via: CDex 1.51
#
DISCID=8e09eb0c
DTITLE=Maddie Willis - Chase the Moon
DYEAR=1900
DGENRE=Country
TTITLE0=chase the moon
TTITLE1=fool's lullaby
TTITLE2=too little too late
TTITLE3=easy on you baby
TTITLE4=single solitary me
TTITLE5=still crying
TTITLE6=all the heartache i need
TTITLE7=i know better
TTITLE8=mine tonight
TTITLE9=wrong kind of love
TTITLE10=you can't make me cry
TTITLE11=it was love
EXTD=
EXTT0=
EXTT1=
EXTT2=
EXTT3=
EXTT4=
EXTT5=
EXTT6=
EXTT7=
EXTT8=
EXTT9=
EXTT10=
EXTT11=
PLAYORDER=
